<mxfile host="app.diagrams.net" modified="2024-02-03T04:25:21.339Z" agent="Mozilla/5.0 (Windows NT 10.0; Win64; x64) AppleWebKit/537.36 (KHTML, like Gecko) Chrome/117.0.0.0 Safari/537.36 Edg/117.0.2045.47" etag="bTKYfFGUwmLvv6_OF_lS" version="23.1.1" type="github">
  <diagram id="C5RBs43oDa-KdzZeNtuy" name="Page-1">
    <mxGraphModel dx="1386" dy="913" grid="1" gridSize="10" guides="1" tooltips="1" connect="1" arrows="1" fold="1" page="1" pageScale="1" pageWidth="1169" pageHeight="827" math="0" shadow="0">
      <root>
        <mxCell id="WIyWlLk6GJQsqaUBKTNV-0" />
        <mxCell id="WIyWlLk6GJQsqaUBKTNV-1" parent="WIyWlLk6GJQsqaUBKTNV-0" />
        <mxCell id="8GiJINHcV0jm0DNlGFCi-0" value="Actor" style="shape=umlActor;verticalLabelPosition=bottom;verticalAlign=top;html=1;outlineConnect=0;" parent="WIyWlLk6GJQsqaUBKTNV-1" vertex="1">
          <mxGeometry x="40" y="164" width="40" height="60" as="geometry" />
        </mxCell>
        <mxCell id="8GiJINHcV0jm0DNlGFCi-1" value="로그인 시도" style="rounded=0;whiteSpace=wrap;html=1;" parent="WIyWlLk6GJQsqaUBKTNV-1" vertex="1">
          <mxGeometry x="190" y="164" width="120" height="60" as="geometry" />
        </mxCell>
        <mxCell id="8GiJINHcV0jm0DNlGFCi-2" value="로그인 검증" style="rounded=0;whiteSpace=wrap;html=1;" parent="WIyWlLk6GJQsqaUBKTNV-1" vertex="1">
          <mxGeometry x="420" y="164" width="120" height="60" as="geometry" />
        </mxCell>
        <mxCell id="8GiJINHcV0jm0DNlGFCi-6" value="FE" style="rounded=1;whiteSpace=wrap;html=1;" parent="WIyWlLk6GJQsqaUBKTNV-1" vertex="1">
          <mxGeometry x="190" y="64" width="120" height="60" as="geometry" />
        </mxCell>
        <mxCell id="8GiJINHcV0jm0DNlGFCi-7" value="BE" style="rounded=1;whiteSpace=wrap;html=1;" parent="WIyWlLk6GJQsqaUBKTNV-1" vertex="1">
          <mxGeometry x="420" y="64" width="120" height="60" as="geometry" />
        </mxCell>
        <mxCell id="8GiJINHcV0jm0DNlGFCi-8" value="redis" style="shape=cylinder3;whiteSpace=wrap;html=1;boundedLbl=1;backgroundOutline=1;size=15;" parent="WIyWlLk6GJQsqaUBKTNV-1" vertex="1">
          <mxGeometry x="670" y="64" width="60" height="80" as="geometry" />
        </mxCell>
        <mxCell id="8GiJINHcV0jm0DNlGFCi-9" value="RDB" style="shape=cylinder3;whiteSpace=wrap;html=1;boundedLbl=1;backgroundOutline=1;size=15;" parent="WIyWlLk6GJQsqaUBKTNV-1" vertex="1">
          <mxGeometry x="670" y="174" width="60" height="80" as="geometry" />
        </mxCell>
        <mxCell id="8GiJINHcV0jm0DNlGFCi-12" value="" style="endArrow=classic;html=1;rounded=0;entryX=0;entryY=0.5;entryDx=0;entryDy=0;" parent="WIyWlLk6GJQsqaUBKTNV-1" source="8GiJINHcV0jm0DNlGFCi-0" target="8GiJINHcV0jm0DNlGFCi-1" edge="1">
          <mxGeometry width="50" height="50" relative="1" as="geometry">
            <mxPoint x="530" y="334" as="sourcePoint" />
            <mxPoint x="580" y="284" as="targetPoint" />
          </mxGeometry>
        </mxCell>
        <mxCell id="8GiJINHcV0jm0DNlGFCi-13" value="" style="endArrow=classic;html=1;rounded=0;entryX=0;entryY=0.5;entryDx=0;entryDy=0;" parent="WIyWlLk6GJQsqaUBKTNV-1" edge="1">
          <mxGeometry width="50" height="50" relative="1" as="geometry">
            <mxPoint x="310" y="193.5" as="sourcePoint" />
            <mxPoint x="420" y="193.5" as="targetPoint" />
            <Array as="points">
              <mxPoint x="360" y="193.5" />
            </Array>
          </mxGeometry>
        </mxCell>
        <mxCell id="8GiJINHcV0jm0DNlGFCi-18" value="" style="endArrow=classic;html=1;rounded=0;exitX=1;exitY=0.5;exitDx=0;exitDy=0;entryX=0;entryY=0;entryDx=0;entryDy=52.5;entryPerimeter=0;" parent="WIyWlLk6GJQsqaUBKTNV-1" source="8GiJINHcV0jm0DNlGFCi-2" target="8GiJINHcV0jm0DNlGFCi-9" edge="1">
          <mxGeometry width="50" height="50" relative="1" as="geometry">
            <mxPoint x="530" y="350" as="sourcePoint" />
            <mxPoint x="580" y="300" as="targetPoint" />
          </mxGeometry>
        </mxCell>
        <mxCell id="8GiJINHcV0jm0DNlGFCi-19" value="" style="endArrow=classic;html=1;rounded=0;entryX=0;entryY=0;entryDx=0;entryDy=52.5;entryPerimeter=0;exitX=1;exitY=0.5;exitDx=0;exitDy=0;" parent="WIyWlLk6GJQsqaUBKTNV-1" source="8GiJINHcV0jm0DNlGFCi-2" target="8GiJINHcV0jm0DNlGFCi-8" edge="1">
          <mxGeometry width="50" height="50" relative="1" as="geometry">
            <mxPoint x="540" y="100" as="sourcePoint" />
            <mxPoint x="590" y="50" as="targetPoint" />
          </mxGeometry>
        </mxCell>
        <mxCell id="8GiJINHcV0jm0DNlGFCi-20" value="jwt 저장" style="rounded=1;whiteSpace=wrap;html=1;" parent="WIyWlLk6GJQsqaUBKTNV-1" vertex="1">
          <mxGeometry x="770" y="74" width="120" height="60" as="geometry" />
        </mxCell>
        <mxCell id="8GiJINHcV0jm0DNlGFCi-21" value="계정조회" style="rounded=1;whiteSpace=wrap;html=1;" parent="WIyWlLk6GJQsqaUBKTNV-1" vertex="1">
          <mxGeometry x="770" y="184" width="120" height="60" as="geometry" />
        </mxCell>
        <mxCell id="8GiJINHcV0jm0DNlGFCi-22" value="" style="edgeStyle=elbowEdgeStyle;elbow=vertical;endArrow=classic;html=1;curved=0;rounded=0;endSize=8;startSize=8;exitX=0.5;exitY=0;exitDx=0;exitDy=0;" parent="WIyWlLk6GJQsqaUBKTNV-1" edge="1" source="mw6NqvUpDxh2f4Y7yOHA-0">
          <mxGeometry width="50" height="50" relative="1" as="geometry">
            <mxPoint x="50" y="390" as="sourcePoint" />
            <mxPoint x="480" y="224" as="targetPoint" />
          </mxGeometry>
        </mxCell>
        <mxCell id="8GiJINHcV0jm0DNlGFCi-23" value="로그인 파라미터" style="rounded=0;whiteSpace=wrap;html=1;" parent="WIyWlLk6GJQsqaUBKTNV-1" vertex="1">
          <mxGeometry x="80" y="480" width="120" height="60" as="geometry" />
        </mxCell>
        <mxCell id="8GiJINHcV0jm0DNlGFCi-24" value="로그인 체크" style="rounded=0;whiteSpace=wrap;html=1;" parent="WIyWlLk6GJQsqaUBKTNV-1" vertex="1">
          <mxGeometry x="240" y="480" width="120" height="60" as="geometry" />
        </mxCell>
        <mxCell id="8GiJINHcV0jm0DNlGFCi-25" value="spring security" style="rounded=1;whiteSpace=wrap;html=1;" parent="WIyWlLk6GJQsqaUBKTNV-1" vertex="1">
          <mxGeometry x="240" y="400" width="120" height="60" as="geometry" />
        </mxCell>
        <mxCell id="8GiJINHcV0jm0DNlGFCi-26" value="성공" style="rounded=0;whiteSpace=wrap;html=1;" parent="WIyWlLk6GJQsqaUBKTNV-1" vertex="1">
          <mxGeometry x="400" y="480" width="120" height="60" as="geometry" />
        </mxCell>
        <mxCell id="8GiJINHcV0jm0DNlGFCi-27" value="실패" style="rounded=0;whiteSpace=wrap;html=1;" parent="WIyWlLk6GJQsqaUBKTNV-1" vertex="1">
          <mxGeometry x="400" y="580" width="120" height="60" as="geometry" />
        </mxCell>
        <mxCell id="8GiJINHcV0jm0DNlGFCi-28" value="" style="endArrow=classic;html=1;rounded=0;entryX=0;entryY=0.5;entryDx=0;entryDy=0;" parent="WIyWlLk6GJQsqaUBKTNV-1" target="8GiJINHcV0jm0DNlGFCi-24" edge="1">
          <mxGeometry width="50" height="50" relative="1" as="geometry">
            <mxPoint x="200" y="510" as="sourcePoint" />
            <mxPoint x="250" y="460" as="targetPoint" />
          </mxGeometry>
        </mxCell>
        <mxCell id="8GiJINHcV0jm0DNlGFCi-29" value="" style="endArrow=classic;html=1;rounded=0;" parent="WIyWlLk6GJQsqaUBKTNV-1" edge="1">
          <mxGeometry width="50" height="50" relative="1" as="geometry">
            <mxPoint x="360" y="509.5" as="sourcePoint" />
            <mxPoint x="400" y="509.5" as="targetPoint" />
          </mxGeometry>
        </mxCell>
        <mxCell id="8GiJINHcV0jm0DNlGFCi-30" value="" style="endArrow=classic;html=1;rounded=0;exitX=1;exitY=0.5;exitDx=0;exitDy=0;entryX=0;entryY=0.5;entryDx=0;entryDy=0;" parent="WIyWlLk6GJQsqaUBKTNV-1" source="8GiJINHcV0jm0DNlGFCi-24" target="8GiJINHcV0jm0DNlGFCi-27" edge="1">
          <mxGeometry width="50" height="50" relative="1" as="geometry">
            <mxPoint x="530" y="660" as="sourcePoint" />
            <mxPoint x="580" y="610" as="targetPoint" />
          </mxGeometry>
        </mxCell>
        <mxCell id="8GiJINHcV0jm0DNlGFCi-31" value="토큰 발급" style="rounded=0;whiteSpace=wrap;html=1;" parent="WIyWlLk6GJQsqaUBKTNV-1" vertex="1">
          <mxGeometry x="560" y="480" width="120" height="60" as="geometry" />
        </mxCell>
        <mxCell id="8GiJINHcV0jm0DNlGFCi-32" value="" style="endArrow=classic;html=1;rounded=0;" parent="WIyWlLk6GJQsqaUBKTNV-1" edge="1">
          <mxGeometry width="50" height="50" relative="1" as="geometry">
            <mxPoint x="520" y="509.5" as="sourcePoint" />
            <mxPoint x="560" y="509.5" as="targetPoint" />
          </mxGeometry>
        </mxCell>
        <mxCell id="8GiJINHcV0jm0DNlGFCi-33" value="로그인 예외 발생" style="rounded=0;whiteSpace=wrap;html=1;" parent="WIyWlLk6GJQsqaUBKTNV-1" vertex="1">
          <mxGeometry x="560" y="580" width="120" height="60" as="geometry" />
        </mxCell>
        <mxCell id="8GiJINHcV0jm0DNlGFCi-34" value="" style="endArrow=classic;html=1;rounded=0;exitX=1;exitY=0.5;exitDx=0;exitDy=0;" parent="WIyWlLk6GJQsqaUBKTNV-1" source="8GiJINHcV0jm0DNlGFCi-27" edge="1">
          <mxGeometry width="50" height="50" relative="1" as="geometry">
            <mxPoint x="530" y="660" as="sourcePoint" />
            <mxPoint x="560" y="610" as="targetPoint" />
          </mxGeometry>
        </mxCell>
        <mxCell id="8GiJINHcV0jm0DNlGFCi-35" value="헤더로 전송" style="rounded=0;whiteSpace=wrap;html=1;" parent="WIyWlLk6GJQsqaUBKTNV-1" vertex="1">
          <mxGeometry x="720" y="480" width="120" height="60" as="geometry" />
        </mxCell>
        <mxCell id="8GiJINHcV0jm0DNlGFCi-36" value="" style="endArrow=classic;html=1;rounded=0;" parent="WIyWlLk6GJQsqaUBKTNV-1" edge="1">
          <mxGeometry width="50" height="50" relative="1" as="geometry">
            <mxPoint x="680" y="509.5" as="sourcePoint" />
            <mxPoint x="720" y="509.5" as="targetPoint" />
          </mxGeometry>
        </mxCell>
        <mxCell id="mw6NqvUpDxh2f4Y7yOHA-2" value="" style="swimlane;startSize=0;" vertex="1" parent="WIyWlLk6GJQsqaUBKTNV-1">
          <mxGeometry x="50" y="370" width="840" height="320" as="geometry" />
        </mxCell>
        <mxCell id="mw6NqvUpDxh2f4Y7yOHA-0" value="로그인 검증" style="rounded=0;whiteSpace=wrap;html=1;" vertex="1" parent="mw6NqvUpDxh2f4Y7yOHA-2">
          <mxGeometry width="120" height="60" as="geometry" />
        </mxCell>
      </root>
    </mxGraphModel>
  </diagram>
</mxfile>
